<?xml version="1.0" encoding="utf-8"?>
<!-- Generator: Adobe Illustrator 21.0.0, SVG Export Plug-In . SVG Version: 6.00 Build 0)  -->
<svg version="1.1" id="Layer_1" xmlns="http://www.w3.org/2000/svg" xmlns:xlink="http://www.w3.org/1999/xlink" x="0px" y="0px"
	 viewBox="0 0 1000 200" style="enable-background:new 0 0 1000 200;" xml:space="preserve">
<style type="text/css">
	.st0{enable-background:new    ;}
	.st1{fill:#333333;}
	.st2{fill:#80C41C;}
</style>
<g class="st0">
	<path class="st1" d="M348.1,141.2v20.1h-2.2v-20.1h-3V139h3v-9.8h2.2v9.8h5.2v2.2H348.1z"/>
	<path class="st1" d="M384.9,161.4v-13.5c0-4.7-2.2-7.1-6.6-7.1c-1.8,0-3.4,0.5-4.6,1.6c-1.3,1.1-2,2.5-2,4.3v14.5h-2.2v-40h2.2V142
		c1.3-2.2,3.5-3.3,6.6-3.3c5.9,0,8.8,3,8.8,9v13.7H384.9z"/>
	<path class="st1" d="M404.9,149.7c0,3,0.8,5.4,2.4,7.2c1.7,1.8,4,2.7,7,2.7c1.5,0,2.9-0.3,4.1-0.8c1.5-0.6,2.9-2,4.2-3.9l2,0.9
		c-1.4,2.7-3.6,4.5-6.5,5.4c-1.1,0.4-2.4,0.5-3.8,0.5c-3.4,0-6.1-1.1-8.3-3.3c-2.2-2.2-3.3-5-3.3-8.3c0-3.4,1.1-6.1,3.2-8.3
		c2.2-2.2,5-3.3,8.3-3.3c3.3,0,6.1,1,8.2,3.1c2.2,2.1,3.3,4.7,3.3,8H404.9z M420.2,142.6c-1.7-1.2-3.6-1.8-5.8-1.8
		c-4.6,0-7.6,2.3-9.1,6.8h18.1C423,145.5,421.9,143.9,420.2,142.6z"/>
	<path class="st1" d="M467.9,135c-0.4,0-0.8-0.2-1.2-0.5c-0.3-0.3-0.5-0.8-0.5-1.3c0-1,0.6-1.6,1.8-1.8c0.9,0,1.5,0.6,1.8,1.8
		C469.7,134.4,469.1,135,467.9,135z M466.7,161.3V139h2.2v22.3H466.7z"/>
	<path class="st1" d="M503.8,161.3v-4c-2.4,2.9-5.4,4.4-9.1,4.4c-3.2,0-6-1.1-8.2-3.3c-2.2-2.2-3.4-5-3.4-8.2s1.1-6,3.3-8.2
		c2.2-2.2,5-3.3,8.2-3.3c3.6,0,6.6,1.5,9.1,4.4v-21.7h2.2v40H503.8z M501.3,143.6c-1.8-1.8-4-2.8-6.6-2.8c-2.6,0-4.8,0.9-6.6,2.7
		c-1.8,1.8-2.8,4.1-2.8,6.6c0,2.6,0.9,4.8,2.8,6.6c1.8,1.8,4,2.8,6.6,2.8c2.6,0,4.8-0.9,6.6-2.7c1.8-1.8,2.8-4.1,2.8-6.6
		C504,147.6,503.1,145.4,501.3,143.6z"/>
	<path class="st1" d="M523.8,149.7c0,3,0.8,5.4,2.4,7.2c1.7,1.8,4,2.7,7,2.7c1.5,0,2.9-0.3,4.1-0.8c1.5-0.6,2.9-2,4.2-3.9l2,0.9
		c-1.4,2.7-3.6,4.5-6.5,5.4c-1.1,0.4-2.4,0.5-3.8,0.5c-3.4,0-6.1-1.1-8.3-3.3c-2.2-2.2-3.3-5-3.3-8.3c0-3.4,1.1-6.1,3.2-8.3
		c2.2-2.2,5-3.3,8.3-3.3c3.3,0,6.1,1,8.2,3.1c2.2,2.1,3.3,4.7,3.3,8H523.8z M539,142.6c-1.7-1.2-3.6-1.8-5.8-1.8
		c-4.6,0-7.6,2.3-9.1,6.8h18.1C541.9,145.5,540.8,143.9,539,142.6z"/>
	<path class="st1" d="M579.4,161.3v-3.8c-2.3,2.8-5.3,4.2-8.9,4.2c-3.2,0-6-1.1-8.2-3.3c-2.2-2.2-3.3-5-3.3-8.2s1.1-6,3.3-8.2
		c2.2-2.2,5-3.3,8.2-3.3c3.6,0,6.5,1.4,8.9,4.2V139h2.2v22.3H579.4z M577.1,143.6c-1.8-1.8-4-2.8-6.6-2.8c-2.6,0-4.8,0.9-6.6,2.7
		c-1.8,1.8-2.8,4.1-2.8,6.6c0,2.6,0.9,4.8,2.8,6.6c1.8,1.8,4,2.8,6.6,2.8c2.6,0,4.8-0.9,6.6-2.7c1.8-1.8,2.8-4.1,2.8-6.6
		C579.8,147.6,578.9,145.4,577.1,143.6z"/>
	<path class="st1" d="M610,159.9c-1.4,1.2-3.2,1.8-5.2,1.8c-3.5,0-6.1-1.6-7.8-4.7l1.9-1.1c0.6,1.1,1.4,2,2.2,2.6
		c0.9,0.7,2.1,1,3.7,1c3.4,0,5.1-1.4,5.1-4.3c0-1.3-0.6-2.4-1.8-3.3c-0.4-0.2-0.9-0.5-1.5-0.7c-0.7-0.3-1.5-0.6-2.5-0.9
		c-1.8-0.6-3.1-1.3-3.9-1.9c-1.2-0.9-1.7-2.3-1.7-4.1c0-1.5,0.6-2.8,1.7-3.9c1.1-1.1,2.6-1.7,4.4-1.7c2.5,0,4.6,0.9,6.3,2.6
		l-1.6,1.4c-1.2-1.2-2.8-1.8-4.7-1.8c-2.6,0-3.9,1.1-3.9,3.4c0,1,0.4,1.8,1.2,2.5c0.6,0.5,1.7,1,3.1,1.5c1.2,0.4,2.2,0.8,3,1.2
		c0.8,0.4,1.4,0.7,1.8,1c1.5,1.2,2.3,2.8,2.3,4.8C612.1,157.2,611.4,158.7,610,159.9z"/>
	<path class="st1" d="M671.1,161.3v-3.8c-2.3,2.8-5.3,4.2-8.9,4.2c-3.2,0-6-1.1-8.2-3.3c-2.2-2.2-3.3-5-3.3-8.2s1.1-6,3.3-8.2
		c2.2-2.2,5-3.3,8.2-3.3c3.6,0,6.5,1.4,8.9,4.2V139h2.2v22.3H671.1z M668.7,143.6c-1.8-1.8-4-2.8-6.6-2.8c-2.6,0-4.8,0.9-6.6,2.7
		c-1.8,1.8-2.8,4.1-2.8,6.6c0,2.6,0.9,4.8,2.8,6.6c1.8,1.8,4,2.8,6.6,2.8c2.6,0,4.8-0.9,6.6-2.7c1.8-1.8,2.8-4.1,2.8-6.6
		C671.5,147.6,670.6,145.4,668.7,143.6z"/>
	<path class="st1" d="M701.2,142.3c-0.6-0.4-1.2-0.8-1.8-1s-1.3-0.4-2.1-0.4c-0.6,0-1.2,0.2-1.7,0.6c-0.5,0.4-1,0.8-1.4,1.4
		c-0.4,0.6-0.7,1.2-0.9,1.9c-0.2,0.7-0.4,1.3-0.4,1.9v14.7h-2.2V139h2.2v3c0.5-0.8,1.1-1.6,1.8-2.3c0.8-0.7,1.6-1,2.5-1
		c1.1,0,2,0.1,2.8,0.4c0.7,0.3,1.5,0.7,2.4,1.4L701.2,142.3z"/>
	<path class="st1" d="M715.5,149.7c0,3,0.8,5.4,2.4,7.2c1.7,1.8,4,2.7,7,2.7c1.5,0,2.9-0.3,4.1-0.8c1.5-0.6,2.9-2,4.2-3.9l2,0.9
		c-1.4,2.7-3.6,4.5-6.5,5.4c-1.1,0.4-2.4,0.5-3.8,0.5c-3.4,0-6.1-1.1-8.3-3.3c-2.2-2.2-3.3-5-3.3-8.3c0-3.4,1.1-6.1,3.2-8.3
		c2.2-2.2,5-3.3,8.3-3.3c3.3,0,6.1,1,8.2,3.1c2.2,2.1,3.3,4.7,3.3,8H715.5z M730.7,142.6c-1.7-1.2-3.6-1.8-5.8-1.8
		c-4.6,0-7.6,2.3-9.1,6.8h18.1C733.5,145.5,732.5,143.9,730.7,142.6z"/>
	<path class="st1" d="M778.4,135c-0.4,0-0.8-0.2-1.2-0.5c-0.3-0.3-0.5-0.8-0.5-1.3c0-1,0.6-1.6,1.8-1.8c0.9,0,1.5,0.6,1.8,1.8
		C780.2,134.4,779.6,135,778.4,135z M777.3,161.3V139h2.2v22.3H777.3z"/>
	<path class="st1" d="M810.1,161.3V148c0-4.7-2.1-7.1-6.4-7.1c-2.1,0-3.7,0.6-4.8,1.8c-1.1,1.2-1.7,2.9-1.7,5v13.6h-2.2V139h2.2v2.7
		c1-2,3.2-3,6.4-3c2.8,0,4.9,0.8,6.4,2.4c1.5,1.6,2.2,3.8,2.2,6.6v13.6H810.1z"/>
	<path class="st1" d="M835.8,123.6l-1.5-0.2c-2,0-3,1.2-3,3.6V139h5.3v2.2h-5.3v20.1h-2.2v-20.1h-3V139h3v-12.7
		c0-3.4,1.7-5.1,5.2-5.1c0.8,0,1.3,0,1.5,0.1c0.4,0,0.9,0.1,1.5,0.4v2.2L835.8,123.6z"/>
	<path class="st1" d="M851.7,135c-0.4,0-0.8-0.2-1.2-0.5c-0.3-0.3-0.5-0.8-0.5-1.3c0-1,0.6-1.6,1.8-1.8c0.9,0,1.5,0.6,1.8,1.8
		C853.5,134.4,852.9,135,851.7,135z M850.6,161.3V139h2.2v22.3H850.6z"/>
	<path class="st1" d="M883.4,161.3V148c0-4.7-2.1-7.1-6.4-7.1c-2.1,0-3.7,0.6-4.8,1.8c-1.1,1.2-1.7,2.9-1.7,5v13.6h-2.2V139h2.2v2.7
		c1-2,3.2-3,6.4-3c2.8,0,4.9,0.8,6.4,2.4c1.5,1.6,2.2,3.8,2.2,6.6v13.6H883.4z"/>
	<path class="st1" d="M902.2,135c-0.4,0-0.8-0.2-1.2-0.5c-0.3-0.3-0.5-0.8-0.5-1.3c0-1,0.6-1.6,1.8-1.8c0.9,0,1.5,0.6,1.8,1.8
		C904,134.4,903.4,135,902.2,135z M901.1,161.3V139h2.2v22.3H901.1z"/>
	<path class="st1" d="M924.8,141.2v20.1h-2.2v-20.1h-3V139h3v-9.8h2.2v9.8h5.2v2.2H924.8z"/>
	<path class="st1" d="M946.2,149.7c0,3,0.8,5.4,2.4,7.2c1.7,1.8,4,2.7,7,2.7c1.5,0,2.9-0.3,4.1-0.8c1.5-0.6,2.9-2,4.2-3.9l2,0.9
		c-1.4,2.7-3.6,4.5-6.5,5.4c-1.1,0.4-2.4,0.5-3.8,0.5c-3.4,0-6.1-1.1-8.3-3.3c-2.2-2.2-3.3-5-3.3-8.3c0-3.4,1.1-6.1,3.2-8.3
		c2.2-2.2,5-3.3,8.3-3.3c3.3,0,6.1,1,8.2,3.1c2.2,2.1,3.3,4.7,3.3,8H946.2z M961.5,142.6c-1.7-1.2-3.6-1.8-5.8-1.8
		c-4.6,0-7.6,2.3-9.1,6.8h18.1C964.3,145.5,963.2,143.9,961.5,142.6z"/>
</g>
<g>
	<path class="st1" d="M223.6,41.7c-17,0-32.7,6-44.8,16.5c-1.1,0.8-13.2,8.8-26.9,32.7c-0.3,0.3-0.3,0.5-0.5,1.1l-9.6,19.2
		c-13.7,29.1-26.1,38.8-26.4,39c-9.3,8.5-22.5,13.2-36,13.2c-28.9,0-52.2-23.4-52.2-52.2S50.4,59,79.3,59c13.7,0,26.1,5.2,35.5,13.7
		l0,0c0,0,0.3,0.3,0.5,0.5c1.4,1.4,3,2.7,5.2,4.7c0.8,0.8,1.6,1.9,2.7,3l8.5-16.5c-4.1-4.1-6.9-5.8-7.4-6.3
		C112.2,48,96.6,41.7,79.5,41.7C41.1,41.7,10,72.7,10,111.2s31.1,69.5,69.5,69.5c17,0,33.3-5.5,45.3-15.9
		c1.1-0.8,13.2-9.6,26.9-34.1l9.6-19.5c8.2-17.6,16.5-28,21.7-33.3c1.9-1.9,3.6-3.3,5.2-4.7c0.3-0.3,0.5-0.3,0.5-0.5l0,0
		c9.3-8.5,21.7-13.7,35.5-13.7c28.9,0,52.2,23.4,52.2,52.2s-23.4,52.2-52.2,52.2c-13.7,0-26.9-4.7-36-13.2c0,0-0.3-0.3-0.5-0.5l0,0
		l-0.3-0.3c0,0,0,0-0.3,0c-0.3-0.3-0.3-0.3-0.5-0.5l0,0c-0.3-0.3-0.5-0.5-0.8-0.8l-0.3-0.3c-0.3-0.3-0.5-0.5-0.8-0.8l-0.3-0.3
		c-0.3-0.3-0.5-0.5-0.8-0.8c-0.3-0.3-0.3-0.3-0.5-0.5c-0.3-0.3-0.5-0.5-0.8-1.1c0-0.3-0.3-0.3-0.3-0.5c-0.5-0.5-0.8-1.1-1.4-1.6
		l-0.3-0.3c-0.3-0.5-0.8-1.1-1.1-1.6c-0.3-0.3-0.3-0.5-0.5-0.5c-0.3-0.5-0.8-0.8-1.1-1.4c-0.3-0.3-0.3-0.5-0.5-0.8
		c-0.3-0.5-0.8-1.1-1.1-1.6c-0.3-0.3-0.3-0.5-0.5-0.8c-0.5-0.8-1.1-1.6-1.6-2.5l0,0c-1.9-3-3.8-6.3-6-10.2L157,140.1
		c2.2,3.6,4.4,6.6,6.6,9.3l0,0c0.3,0.3,0.3,0.3,0.5,0.5c1.1,1.6,2.5,3,3.6,4.4c0,0.3,0.3,0.3,0.3,0.5c0.3,0.3,0.8,0.8,1.1,1.1
		l0.3,0.3c0.3,0.3,0.8,0.8,1.1,1.1l0,0c1.1,1.1,2.2,2.2,3,3c0,0,0,0,0.3,0.3c0.3,0.3,0.5,0.5,0.8,0.8c0,0,0,0,0.3,0.3
		c0.8,0.8,1.6,1.4,2.2,1.9l0,0c0.3,0.3,0.3,0.3,0.5,0.3c0,0,0,0,0.3,0s0.3,0.3,0.3,0.3l0,0c0.3,0.3,0.3,0.3,0.5,0.3
		c12.1,10.2,28.3,15.9,45.3,15.9c38.5,0,69.5-31.1,69.5-69.5C293.1,72.7,262,41.7,223.6,41.7"/>
	<polygon class="st2" points="101,82.3 124.9,41.1 148.5,82.3 	"/>
</g>
<g class="st0">
	<path class="st2" d="M345.6,111.9c-8.3,0-15.2-2.7-20.7-8.2c-5.5-5.5-8.2-12.4-8.2-20.7c0-8.3,2.7-15.2,8.2-20.7
		c5.5-5.5,12.4-8.2,20.7-8.2c7.1,0,12.8,1.6,17,4.9v6.6l-3.5-2.3l-3.8-2c-3.4-1.2-6.7-1.8-9.7-1.8c-6.9,0-12.6,2.2-16.9,6.5
		c-4.4,4.4-6.6,10.1-6.6,17c0,6.8,2.2,12.5,6.6,16.9c4.4,4.4,10,6.6,16.9,6.6c6.5,0,12.2-2.2,17-6.5v6.9
		C357.6,110.2,351.9,111.9,345.6,111.9z"/>
	<path class="st2" d="M415.2,103.3c-5.6,5.6-12.4,8.4-20.5,8.4c-8.1,0-14.9-2.7-20.4-8.2c-5.6-5.6-8.4-12.4-8.4-20.5
		c0-8,2.8-14.8,8.4-20.4c5.5-5.7,12.3-8.5,20.4-8.5c8,0,14.8,2.8,20.4,8.4c5.6,5.6,8.4,12.4,8.4,20.5
		C423.4,91,420.7,97.9,415.2,103.3z M411.3,66.3c-4.5-4.6-10-6.9-16.6-6.9c-6.3,0-11.8,2.3-16.3,7c-4.7,4.7-7,10.2-7,16.5
		c0,6.4,2.3,11.9,6.9,16.5s10.1,6.9,16.5,6.9c6.5,0,12-2.3,16.5-6.8c4.6-4.6,6.9-10.1,6.9-16.6C418,76.4,415.8,70.8,411.3,66.3z"/>
	<path class="st2" d="M474.9,110.8V77.4c0-11.8-5.3-17.7-15.9-17.7c-5.2,0-9.2,1.5-11.9,4.6c-2.8,3.1-4.2,7.3-4.2,12.6v33.9h-5.5V55
		h5.5v6.8c2.5-5,7.9-7.4,16.1-7.4c6.9,0,12.2,2,15.9,5.9c3.7,4,5.5,9.5,5.5,16.6v33.9H474.9z"/>
	<path class="st2" d="M506.6,60.5v50.3h-5.5V60.5h-7.6V55h7.6V30.5h5.5V55h13v5.5H506.6z"/>
	<path class="st2" d="M535.8,45c-1,0-2-0.4-3.1-1.2c-0.8-0.8-1.3-1.9-1.4-3.2c0-2.4,1.5-3.9,4.5-4.5c2.3,0,3.7,1.5,4.5,4.5
		C540.3,43.5,538.8,45,535.8,45z M533,110.8V55h5.5v55.8H533z"/>
	<path class="st2" d="M588,110.8V77.4c0-11.8-5.3-17.7-15.9-17.7c-5.2,0-9.2,1.5-11.9,4.6c-2.8,3.1-4.2,7.3-4.2,12.6v33.9h-5.5V55
		h5.5v6.8c2.5-5,7.9-7.4,16.1-7.4c6.9,0,12.2,2,15.9,5.9c3.7,4,5.5,9.5,5.5,16.6v33.9H588z"/>
	<path class="st2" d="M646.9,105.9c-3.7,4-8.9,5.9-15.5,5.9c-6.6,0-11.7-1.9-15.3-5.8c-3.6-3.9-5.4-9.3-5.4-16.2V55h5.5v34.9
		c0,5.3,1.2,9.4,3.5,12.3c2.4,2.9,6.3,4.3,11.6,4.3c10.4,0,15.5-5.5,15.5-16.6V55h5.4v34.9C652.3,96.7,650.5,102,646.9,105.9z"/>
	<path class="st2" d="M714.4,103.3c-5.6,5.6-12.4,8.4-20.5,8.4c-8.1,0-14.9-2.7-20.4-8.2c-5.6-5.6-8.4-12.4-8.4-20.5
		c0-8,2.8-14.8,8.4-20.4c5.5-5.7,12.3-8.5,20.4-8.5c8,0,14.8,2.8,20.4,8.4c5.6,5.6,8.4,12.4,8.4,20.5
		C722.6,91,719.9,97.9,714.4,103.3z M710.5,66.3c-4.5-4.6-10-6.9-16.6-6.9c-6.3,0-11.8,2.3-16.3,7c-4.7,4.7-7,10.2-7,16.5
		c0,6.4,2.3,11.9,6.9,16.5c4.6,4.6,10.1,6.9,16.5,6.9c6.5,0,12-2.3,16.5-6.8c4.6-4.6,6.9-10.1,6.9-16.6
		C717.2,76.4,715,70.8,710.5,66.3z"/>
	<path class="st2" d="M772.1,105.9c-3.7,4-8.9,5.9-15.5,5.9c-6.6,0-11.7-1.9-15.3-5.8c-3.6-3.9-5.4-9.3-5.4-16.2V55h5.5v34.9
		c0,5.3,1.2,9.4,3.5,12.3c2.4,2.9,6.3,4.3,11.6,4.3c10.4,0,15.5-5.5,15.5-16.6V55h5.4v34.9C777.5,96.7,775.7,102,772.1,105.9z"/>
	<path class="st2" d="M821.9,107.3c-3.6,3.1-7.9,4.6-13,4.6c-8.6,0-15.1-3.9-19.5-11.8l4.7-2.8c1.5,2.8,3.4,5,5.5,6.5
		c2.3,1.7,5.3,2.6,9.2,2.6c8.5,0,12.7-3.6,12.7-10.8c0-3.2-1.5-5.9-4.5-8.2c-0.9-0.5-2.2-1.1-3.9-1.8c-1.7-0.7-3.7-1.5-6.1-2.4
		c-4.5-1.6-7.7-3.2-9.7-4.9c-2.9-2.3-4.3-5.7-4.3-10.1c0-3.8,1.4-7,4.3-9.7c2.8-2.8,6.4-4.2,10.9-4.2c6.2,0,11.5,2.2,15.8,6.5
		l-4.1,3.5c-3.1-3.1-7-4.6-11.8-4.6c-6.5,0-9.7,2.8-9.7,8.5c0,2.5,1,4.6,3,6.2c1.6,1.3,4.2,2.5,7.7,3.6c3.1,1.1,5.6,2.1,7.6,3
		c2,0.9,3.5,1.8,4.5,2.5c3.9,3,5.8,7,5.8,12C827.2,100.4,825.4,104.3,821.9,107.3z"/>
</g>
<g class="st0">
	<path class="st1" d="M885.9,110.8V77.4c0-11.8-5.3-17.7-15.9-17.7c-5.2,0-9.2,1.5-11.9,4.6c-2.8,3.1-4.2,7.3-4.2,12.6v33.9h-5.5V55
		h5.5v6.8c2.5-5,7.9-7.4,16.1-7.4c6.9,0,12.2,2,15.9,5.9c3.7,4,5.5,9.5,5.5,16.6v33.9H885.9z"/>
	<path class="st1" d="M910.4,81.7c0,7.6,2,13.6,6.1,18c4.2,4.5,10,6.8,17.4,6.8c3.8,0,7.2-0.6,10.3-1.9c3.9-1.6,7.3-4.9,10.4-9.9
		l5,2.3c-3.5,6.7-8.9,11.2-16.2,13.5c-2.8,0.9-5.9,1.4-9.5,1.4c-8.4,0-15.3-2.7-20.7-8.2c-5.5-5.5-8.2-12.4-8.2-20.7
		c0-8.4,2.7-15.3,8.1-20.7c5.5-5.5,12.4-8.2,20.8-8.2c8.3,0,15.1,2.6,20.5,7.7c5.5,5.1,8.2,11.8,8.2,20H910.4z M948.5,64
		c-4.2-3.1-9.1-4.6-14.6-4.6c-11.5,0-19.1,5.7-22.7,17h45.3C955.5,71.3,952.9,67.2,948.5,64z"/>
	<path class="st1" d="M977.5,60.5v50.3H972V60.5h-7.6V55h7.6V30.5h5.5V55h13v5.5H977.5z"/>
</g>
</svg>
